<svg xmlns="http://www.w3.org/2000/svg" viewBox="0 0 24 24" fill="none">
  <path d="M8.2 15.4c-1.45-1.1-2.4-2.85-2.4-4.82A6.2 6.2 0 0 1 12 4.4a6.2 6.2 0 0 1 6.2 6.18c0 1.97-.95 3.72-2.4 4.82-.72.55-1.15 1.17-1.28 1.8H9.48c-.13-.63-.56-1.25-1.28-1.8Z" stroke="#1268F3" stroke-width="1.7" stroke-linejoin="round"/>
  <path d="M9.5 20h5M10 17.2h4" stroke="#1268F3" stroke-width="1.7" stroke-linecap="round"/>
  <path d="M12 1.8v1.1M3.2 10.5H2.1M21.9 10.5h-1.1M5.5 4 4.7 3.2M19.3 3.2l-.8.8" stroke="#7EADFF" stroke-width="1.5" stroke-linecap="round"/>
</svg>
